<?xml version="1.0" encoding="UTF-8"?>
<!DOCTYPE svg PUBLIC "-//W3C//DTD SVG 1.1//EN" "http://www.w3.org/Graphics/SVG/1.1/DTD/svg11.dtd">
<svg xmlns="http://www.w3.org/2000/svg" version="1.1" width="500px" height="500px" style="shape-rendering:geometricPrecision; text-rendering:geometricPrecision; image-rendering:optimizeQuality; fill-rule:evenodd; clip-rule:evenodd" xmlns:xlink="http://www.w3.org/1999/xlink">
<g><path style="opacity:0.875" fill="#508a6c" d="M 288.5,113.5 C 275.481,111.126 262.314,109.792 249,109.5C 239.493,110.126 229.993,110.793 220.5,111.5C 243.329,105.879 265.995,106.545 288.5,113.5 Z"/></g>
<g><path style="opacity:0.898" fill="#6b9d82" d="M 219.5,111.5 C 219.389,112.117 219.056,112.617 218.5,113C 215.173,113.61 211.839,114.11 208.5,114.5C 211.888,112.882 215.554,111.882 219.5,111.5 Z"/></g>
<g><path style="opacity:0.997" fill="#aee055" d="M 275.5,126.5 C 277.025,128.036 279.025,129.036 281.5,129.5C 282.128,131.258 283.128,132.758 284.5,134C 282.983,135.508 281.149,136.342 279,136.5C 276.778,134.806 274.278,133.806 271.5,133.5C 271.5,134.833 271.5,136.167 271.5,137.5C 260.625,139.151 249.625,139.985 238.5,140C 233.644,141.118 228.644,141.951 223.5,142.5C 223.167,143.5 222.5,144.167 221.5,144.5C 217.305,142.767 212.971,142.267 208.5,143C 207.833,143.667 207.167,144.333 206.5,145C 200.436,145.195 194.436,145.861 188.5,147C 187.594,148.699 187.261,150.533 187.5,152.5C 182.681,152.163 178.181,153.163 174,155.5C 173.5,155.333 173,155.167 172.5,155C 173.711,154.107 173.711,153.274 172.5,152.5C 170.026,153.32 167.693,154.32 165.5,155.5C 169.568,151.101 174.235,147.435 179.5,144.5C 182.079,141.865 185.079,139.699 188.5,138C 195.589,134.141 202.923,130.975 210.5,128.5C 213.127,127.908 215.794,127.575 218.5,127.5C 237.444,124.023 256.444,123.689 275.5,126.5 Z"/></g>
<g><path style="opacity:0.996" fill="#3b805c" d="M 185.5,123.5 C 185.586,124.496 185.252,125.329 184.5,126C 180.964,128.366 177.297,130.533 173.5,132.5C 172.702,132.957 172.369,133.624 172.5,134.5C 168.584,134.971 165.75,136.971 164,140.5C 163.667,139.833 163.333,139.167 163,138.5C 162.329,139.252 161.496,139.586 160.5,139.5C 167.755,132.596 176.089,127.263 185.5,123.5 Z"/></g>
<g><path style="opacity:1" fill="#a5db4e" d="M 275.5,126.5 C 277.379,127.341 279.379,127.675 281.5,127.5C 284.983,127.691 288.316,128.357 291.5,129.5C 310.092,137.046 326.758,147.713 341.5,161.5C 342.5,162.833 343.5,164.167 344.5,165.5C 344.937,168.859 345.937,172.026 347.5,175C 348.449,175.617 349.282,175.451 350,174.5C 350.273,176.329 351.107,177.829 352.5,179C 352.167,179.333 351.833,179.667 351.5,180C 339.941,179.938 328.441,180.438 317,181.5C 313.92,180.994 311.42,179.661 309.5,177.5C 309.271,175.567 308.438,173.9 307,172.5C 305.989,171.663 304.822,171.33 303.5,171.5C 304.167,165.5 301.5,162.167 295.5,161.5C 295.331,162.397 294.998,163.397 294.5,164.5C 274.97,153.73 254.137,150.397 232,154.5C 229.803,154.349 227.636,154.015 225.5,153.5C 224.833,153.833 224.167,154.167 223.5,154.5C 224.5,155.167 225.5,155.833 226.5,156.5C 225.398,157.176 224.398,157.842 223.5,158.5C 221.364,159.653 219.364,160.986 217.5,162.5C 212.655,164.347 208.322,167.013 204.5,170.5C 202.856,170.714 201.356,170.38 200,169.5C 198.086,170.676 198.252,171.676 200.5,172.5C 199,172.833 197.5,173.167 196,173.5C 180.65,174.843 165.483,176.343 150.5,178C 149.892,175.816 150.559,173.816 152.5,172C 155.646,171.89 156.646,170.557 155.5,168C 157.638,165.629 160.138,163.796 163,162.5C 164.903,160.559 165.736,158.226 165.5,155.5C 167.693,154.32 170.026,153.32 172.5,152.5C 173.711,153.274 173.711,154.107 172.5,155C 173,155.167 173.5,155.333 174,155.5C 178.181,153.163 182.681,152.163 187.5,152.5C 187.261,150.533 187.594,148.699 188.5,147C 194.436,145.861 200.436,145.195 206.5,145C 207.167,144.333 207.833,143.667 208.5,143C 212.971,142.267 217.305,142.767 221.5,144.5C 222.5,144.167 223.167,143.5 223.5,142.5C 228.644,141.951 233.644,141.118 238.5,140C 249.625,139.985 260.625,139.151 271.5,137.5C 271.5,136.167 271.5,134.833 271.5,133.5C 274.278,133.806 276.778,134.806 279,136.5C 281.149,136.342 282.983,135.508 284.5,134C 283.128,132.758 282.128,131.258 281.5,129.5C 279.025,129.036 277.025,128.036 275.5,126.5 Z"/></g>
<g><path style="opacity:1" fill="#0a6f35" d="M 291.5,129.5 C 298.299,130.011 304.299,132.344 309.5,136.5C 310.259,134.738 311.259,132.738 312.5,130.5C 313.93,130.421 315.264,130.754 316.5,131.5C 317.833,133.5 319.167,135.5 320.5,137.5C 320.833,137 321.167,136.5 321.5,136C 320.38,134.263 319.38,132.429 318.5,130.5C 321.487,129.216 323.987,129.883 326,132.5C 326.333,132.167 326.667,131.833 327,131.5C 328.718,133.897 329.885,136.564 330.5,139.5C 332.678,141.439 335.011,142.106 337.5,141.5C 336.432,144.205 334.432,145.705 331.5,146C 332.573,147.25 332.573,148.584 331.5,150C 335.444,153.434 338.778,157.268 341.5,161.5C 326.758,147.713 310.092,137.046 291.5,129.5 Z"/></g>
<g><path style="opacity:1" fill="#317550" d="M 160.5,139.5 C 158.16,142.534 156.16,145.868 154.5,149.5C 150.94,150.059 148.607,152.059 147.5,155.5C 146.311,156.429 144.978,156.762 143.5,156.5C 143.5,157.833 143.5,159.167 143.5,160.5C 142.167,160.5 140.833,160.5 139.5,160.5C 145.5,152.5 152.5,145.5 160.5,139.5 Z"/></g>
<g><path style="opacity:1" fill="#a0d260" d="M 309.5,177.5 C 304.698,173.027 299.365,169.36 293.5,166.5C 290.421,164.455 287.088,162.622 283.5,161C 263.734,153.38 243.734,152.546 223.5,158.5C 224.398,157.842 225.398,157.176 226.5,156.5C 225.5,155.833 224.5,155.167 223.5,154.5C 224.167,154.167 224.833,153.833 225.5,153.5C 227.636,154.015 229.803,154.349 232,154.5C 254.137,150.397 274.97,153.73 294.5,164.5C 294.998,163.397 295.331,162.397 295.5,161.5C 301.5,162.167 304.167,165.5 303.5,171.5C 304.822,171.33 305.989,171.663 307,172.5C 308.438,173.9 309.271,175.567 309.5,177.5 Z"/></g>
<g><path style="opacity:1" fill="#002b19" d="M 293.5,166.5 C 299.365,169.36 304.698,173.027 309.5,177.5C 310.714,179.808 310.714,182.141 309.5,184.5C 303.709,190.792 297.709,196.959 291.5,203C 290.5,203.667 289.5,203.667 288.5,203C 286.63,200.96 284.63,199.127 282.5,197.5C 270.398,186.135 256.065,181.969 239.5,185C 233.651,188.328 229.984,193.161 228.5,199.5C 227.244,205.029 228.911,209.695 233.5,213.5C 235.004,215.836 237.004,217.669 239.5,219C 250.754,223.692 262.088,227.859 273.5,231.5C 282.235,235.034 290.568,239.368 298.5,244.5C 299.262,246.262 300.596,247.262 302.5,247.5C 305.547,250.545 308.213,253.878 310.5,257.5C 310.196,258.15 309.863,258.817 309.5,259.5C 311.972,262.042 313.805,265.042 315,268.5C 315.762,280.021 314.762,291.354 312,302.5C 311.798,300.744 311.298,299.078 310.5,297.5C 309.623,300.825 309.456,304.158 310,307.5C 307.925,311.039 305.758,314.373 303.5,317.5C 299.8,321.535 295.8,325.202 291.5,328.5C 284.781,331.398 278.114,334.065 271.5,336.5C 263.735,337.9 255.902,338.9 248,339.5C 239.644,339.147 231.477,337.814 223.5,335.5C 207.286,330.304 193.12,321.637 181,309.5C 179.878,307.58 179.044,305.58 178.5,303.5C 180.785,301.882 182.785,299.882 184.5,297.5C 185.609,297.443 186.609,297.11 187.5,296.5C 190.274,295.277 192.941,293.777 195.5,292C 198.148,286.841 202.148,285.341 207.5,287.5C 211.019,290.421 214.686,293.087 218.5,295.5C 224.098,300.134 230.432,303.467 237.5,305.5C 240.123,307.265 243.123,307.932 246.5,307.5C 250.981,308.648 255.648,308.815 260.5,308C 261.056,307.617 261.389,307.117 261.5,306.5C 261.5,305.833 261.833,305.5 262.5,305.5C 268.912,304.092 273.579,300.425 276.5,294.5C 276.5,294.167 276.5,293.833 276.5,293.5C 280.231,281.958 276.564,273.625 265.5,268.5C 263.566,267.89 261.899,266.89 260.5,265.5C 256.328,261.675 251.328,259.175 245.5,258C 247.235,257.349 248.902,257.515 250.5,258.5C 252.475,257.725 253.309,256.391 253,254.5C 248.513,254.329 244.013,254.995 239.5,256.5C 239.674,254.139 240.007,251.806 240.5,249.5C 238.801,249.34 237.134,249.506 235.5,250C 235.018,251.008 234.852,252.175 235,253.5C 230.105,251.22 224.939,249.886 219.5,249.5C 212.973,247.076 207.307,243.409 202.5,238.5C 201.269,234.607 198.935,231.607 195.5,229.5C 193.992,227.819 192.992,225.819 192.5,223.5C 191.844,209.979 192.844,196.646 195.5,183.5C 195.427,181.973 196.094,180.973 197.5,180.5C 199.352,179.911 201.185,179.244 203,178.5C 203,177.167 203,175.833 203,174.5C 204.5,173 206,171.5 207.5,170C 209.258,170.344 211.091,170.844 213,171.5C 213.833,171.167 214.667,170.833 215.5,170.5C 214.5,169.167 213.5,167.833 212.5,166.5C 214.419,165.388 216.086,164.054 217.5,162.5C 219.262,162.357 220.929,162.691 222.5,163.5C 223.711,162.726 223.711,161.893 222.5,161C 226.133,160.717 229.633,159.883 233,158.5C 234.711,158.439 236.044,159.106 237,160.5C 238.617,159.464 238.784,158.297 237.5,157C 251.804,155.42 265.804,156.754 279.5,161C 284.124,163.172 288.791,165.006 293.5,166.5 Z"/></g>
<g><path style="opacity:1" fill="#093410" d="M 293.5,166.5 C 288.791,165.006 284.124,163.172 279.5,161C 265.804,156.754 251.804,155.42 237.5,157C 238.784,158.297 238.617,159.464 237,160.5C 236.044,159.106 234.711,158.439 233,158.5C 229.633,159.883 226.133,160.717 222.5,161C 223.711,161.893 223.711,162.726 222.5,163.5C 220.929,162.691 219.262,162.357 217.5,162.5C 219.364,160.986 221.364,159.653 223.5,158.5C 243.734,152.546 263.734,153.38 283.5,161C 287.088,162.622 290.421,164.455 293.5,166.5 Z"/></g>
<g><path style="opacity:0.451" fill="#94c0ab" d="M 135.5,165.5 C 135.573,167.027 134.906,168.027 133.5,168.5C 133.427,166.973 134.094,165.973 135.5,165.5 Z"/></g>
<g><path style="opacity:1" fill="#083213" d="M 217.5,162.5 C 216.086,164.054 214.419,165.388 212.5,166.5C 213.5,167.833 214.5,169.167 215.5,170.5C 214.667,170.833 213.833,171.167 213,171.5C 211.091,170.844 209.258,170.344 207.5,170C 206,171.5 204.5,173 203,174.5C 203,175.833 203,177.167 203,178.5C 201.185,179.244 199.352,179.911 197.5,180.5C 199.029,176.632 201.363,173.299 204.5,170.5C 208.322,167.013 212.655,164.347 217.5,162.5 Z"/></g>
<g><path style="opacity:0.341" fill="#a5c5b4" d="M 365.5,167.5 C 366.906,167.973 367.573,168.973 367.5,170.5C 366.094,170.027 365.427,169.027 365.5,167.5 Z"/></g>
<g><path style="opacity:1" fill="#197142" d="M 348.5,148.5 C 355.563,153.564 361.23,159.898 365.5,167.5C 365.427,169.027 366.094,170.027 367.5,170.5C 376.149,181.803 382.149,194.47 385.5,208.5C 385.171,211.228 385.837,213.562 387.5,215.5C 389,219.326 389.666,223.326 389.5,227.5C 388.019,222.065 385.519,217.065 382,212.5C 381.438,210.134 381.604,207.801 382.5,205.5C 381.254,202.972 380.254,200.305 379.5,197.5C 377.482,196.187 376.315,196.853 376,199.5C 373.443,196.115 373.277,192.782 375.5,189.5C 374.167,189.167 372.833,188.833 371.5,188.5C 369.415,186.36 369.415,184.526 371.5,183C 370.692,182.692 370.025,182.192 369.5,181.5C 367.599,180.769 365.599,180.769 363.5,181.5C 363.5,180.5 363.5,179.5 363.5,178.5C 362.178,178.33 361.011,178.663 360,179.5C 359.355,178.354 358.522,177.354 357.5,176.5C 358.645,175.109 358.645,173.776 357.5,172.5C 355.386,171.966 353.552,170.966 352,169.5C 350.143,165.398 348.977,161.064 348.5,156.5C 349.5,156.5 350.5,156.5 351.5,156.5C 351.5,155.167 351.5,153.833 351.5,152.5C 350.5,152.5 349.5,152.5 348.5,152.5C 348.5,151.167 348.5,149.833 348.5,148.5 Z"/></g>
<g><path style="opacity:0.997" fill="#9bd64c" d="M 165.5,155.5 C 165.736,158.226 164.903,160.559 163,162.5C 160.138,163.796 157.638,165.629 155.5,168C 156.646,170.557 155.646,171.89 152.5,172C 150.559,173.816 149.892,175.816 150.5,178C 165.483,176.343 180.65,174.843 196,173.5C 197.5,173.167 199,172.833 200.5,172.5C 198.252,171.676 198.086,170.676 200,169.5C 201.356,170.38 202.856,170.714 204.5,170.5C 201.363,173.299 199.029,176.632 197.5,180.5C 196.094,180.973 195.427,181.973 195.5,183.5C 193.989,186.005 192.655,188.672 191.5,191.5C 189.753,192.981 188.586,194.981 188,197.5C 187.502,200.817 187.335,204.15 187.5,207.5C 186.257,205.036 185.257,202.37 184.5,199.5C 178.585,200.139 172.585,200.139 166.5,199.5C 158.388,200.614 150.388,201.948 142.5,203.5C 139.831,203.493 138.498,202.159 138.5,199.5C 138.923,196.892 139.923,194.558 141.5,192.5C 141.069,191.707 140.735,190.873 140.5,190C 141.945,186.308 144.112,183.141 147,180.5C 147.494,178.866 147.66,177.199 147.5,175.5C 152.573,168.037 158.573,161.371 165.5,155.5 Z"/></g>
<g><path style="opacity:0.999" fill="#8fd047" d="M 344.5,165.5 C 349.318,169.652 352.985,174.652 355.5,180.5C 356.212,183.47 357.212,186.303 358.5,189C 356.744,194.043 357.411,198.71 360.5,203C 361.448,203.483 362.448,203.649 363.5,203.5C 363.318,201.325 362.651,199.325 361.5,197.5C 362.272,195.292 363.105,195.625 364,198.5C 364.826,201.793 365.326,205.126 365.5,208.5C 366.5,208.5 367.5,208.5 368.5,208.5C 368.66,210.199 368.494,211.866 368,213.5C 365.952,212.577 364.119,213.077 362.5,215C 355.148,215.364 347.815,215.864 340.5,216.5C 340.719,217.675 340.386,218.675 339.5,219.5C 309.505,216.83 279.171,217.164 248.5,220.5C 246.917,219.064 245.417,217.398 244,215.5C 243.275,216.059 242.442,216.392 241.5,216.5C 238.626,215.878 235.96,214.878 233.5,213.5C 228.911,209.695 227.244,205.029 228.5,199.5C 229.404,198.791 229.737,197.791 229.5,196.5C 232.59,198.454 234.923,197.787 236.5,194.5C 235.738,194.089 234.738,193.923 233.5,194C 234.623,192.956 235.956,192.29 237.5,192C 237.167,191.667 236.833,191.333 236.5,191C 237.685,189.647 239.019,188.48 240.5,187.5C 246.729,186.729 252.895,186.396 259,186.5C 261.185,186.921 263.351,187.421 265.5,188C 266.833,189 266.833,190 265.5,191C 268.232,191.413 270.899,192.08 273.5,193C 273.102,195.857 274.435,198.024 277.5,199.5C 278.711,198.726 278.711,197.893 277.5,197C 279.197,196.616 280.863,196.782 282.5,197.5C 284.63,199.127 286.63,200.96 288.5,203C 289.5,203.667 290.5,203.667 291.5,203C 297.709,196.959 303.709,190.792 309.5,184.5C 310.714,182.141 310.714,179.808 309.5,177.5C 311.42,179.661 313.92,180.994 317,181.5C 328.441,180.438 339.941,179.938 351.5,180C 351.833,179.667 352.167,179.333 352.5,179C 351.107,177.829 350.273,176.329 350,174.5C 349.282,175.451 348.449,175.617 347.5,175C 345.937,172.026 344.937,168.859 344.5,165.5 Z"/></g>
<g><path style="opacity:0.902" fill="#6fa689" d="M 121.5,189.5 C 121.818,192.481 120.818,194.815 118.5,196.5C 119.088,193.937 120.088,191.604 121.5,189.5 Z"/></g>
<g><path style="opacity:1" fill="#8cc753" d="M 282.5,197.5 C 280.863,196.782 279.197,196.616 277.5,197C 278.711,197.893 278.711,198.726 277.5,199.5C 274.435,198.024 273.102,195.857 273.5,193C 270.899,192.08 268.232,191.413 265.5,191C 266.833,190 266.833,189 265.5,188C 263.351,187.421 261.185,186.921 259,186.5C 252.895,186.396 246.729,186.729 240.5,187.5C 239.019,188.48 237.685,189.647 236.5,191C 236.833,191.333 237.167,191.667 237.5,192C 235.956,192.29 234.623,192.956 233.5,194C 234.738,193.923 235.738,194.089 236.5,194.5C 234.923,197.787 232.59,198.454 229.5,196.5C 229.737,197.791 229.404,198.791 228.5,199.5C 229.984,193.161 233.651,188.328 239.5,185C 256.065,181.969 270.398,186.135 282.5,197.5 Z"/></g>
<g><path style="opacity:1" fill="#086e39" d="M 288.5,113.5 C 312.016,119.394 332.016,131.061 348.5,148.5C 348.5,149.833 348.5,151.167 348.5,152.5C 349.5,152.5 350.5,152.5 351.5,152.5C 351.5,153.833 351.5,155.167 351.5,156.5C 350.5,156.5 349.5,156.5 348.5,156.5C 348.977,161.064 350.143,165.398 352,169.5C 353.552,170.966 355.386,171.966 357.5,172.5C 358.645,173.776 358.645,175.109 357.5,176.5C 358.522,177.354 359.355,178.354 360,179.5C 361.011,178.663 362.178,178.33 363.5,178.5C 363.5,179.5 363.5,180.5 363.5,181.5C 365.599,180.769 367.599,180.769 369.5,181.5C 370.025,182.192 370.692,182.692 371.5,183C 369.415,184.526 369.415,186.36 371.5,188.5C 372.833,188.833 374.167,189.167 375.5,189.5C 373.277,192.782 373.443,196.115 376,199.5C 376.315,196.853 377.482,196.187 379.5,197.5C 380.254,200.305 381.254,202.972 382.5,205.5C 381.604,207.801 381.438,210.134 382,212.5C 385.519,217.065 388.019,222.065 389.5,227.5C 392.631,246.972 391.965,266.305 387.5,285.5C 385.837,287.438 385.171,289.772 385.5,292.5C 383.347,295.994 381.181,299.661 379,303.5C 377.569,308.339 376.069,313.005 374.5,317.5C 374.5,317.833 374.5,318.167 374.5,318.5C 371.27,319.728 369.604,322.061 369.5,325.5C 368.5,325.5 367.5,325.5 366.5,325.5C 366.5,327.167 366.5,328.833 366.5,330.5C 362.427,330.946 360.427,333.28 360.5,337.5C 359.5,337.5 358.5,337.5 357.5,337.5C 357.5,339.167 357.5,340.833 357.5,342.5C 356.883,342.389 356.383,342.056 356,341.5C 354.519,344.044 352.352,345.71 349.5,346.5C 348.534,348.396 348.201,350.396 348.5,352.5C 345.129,355.871 341.463,358.871 337.5,361.5C 333.776,360.773 331.109,362.106 329.5,365.5C 328.271,366.281 326.938,366.781 325.5,367C 324.167,367.667 324.167,368.333 325.5,369C 322.038,370.004 318.704,371.17 315.5,372.5C 315.5,373.5 315.5,374.5 315.5,375.5C 311.882,375.707 308.548,376.707 305.5,378.5C 304.737,377.732 303.737,377.232 302.5,377C 304.929,376.549 305.096,375.715 303,374.5C 301.038,374.969 299.205,374.303 297.5,372.5C 298.685,371.147 300.019,369.98 301.5,369C 300.833,368.833 300.167,368.667 299.5,368.5C 290.35,372.87 280.683,375.87 270.5,377.5C 269.914,377.291 269.414,376.957 269,376.5C 258.667,377.167 248.333,377.833 238,378.5C 233.35,377.407 228.684,376.407 224,375.5C 223.667,375.833 223.333,376.167 223,376.5C 220.2,375.872 217.533,374.872 215,373.5C 213.692,374.151 212.859,373.485 212.5,371.5C 232.553,376.635 252.886,377.801 273.5,375C 286.525,372.013 298.859,367.68 310.5,362C 319.464,360.32 326.464,355.82 331.5,348.5C 336.415,343.083 341.581,337.749 347,332.5C 351.339,327.15 355.172,321.484 358.5,315.5C 361.014,312.636 362.68,309.302 363.5,305.5C 365.87,302.587 367.704,299.254 369,295.5C 371.767,288.038 373.6,280.371 374.5,272.5C 376.989,257.68 377.156,242.68 375,227.5C 374.768,226.263 374.268,225.263 373.5,224.5C 373.5,223.833 373.5,223.167 373.5,222.5C 371.935,214.692 369.769,207.026 367,199.5C 363.745,193.992 360.745,188.325 358,182.5C 357.292,181.619 356.458,180.953 355.5,180.5C 352.985,174.652 349.318,169.652 344.5,165.5C 343.5,164.167 342.5,162.833 341.5,161.5C 338.778,157.268 335.444,153.434 331.5,150C 332.573,148.584 332.573,147.25 331.5,146C 334.432,145.705 336.432,144.205 337.5,141.5C 335.011,142.106 332.678,141.439 330.5,139.5C 329.885,136.564 328.718,133.897 327,131.5C 326.667,131.833 326.333,132.167 326,132.5C 323.987,129.883 321.487,129.216 318.5,130.5C 319.38,132.429 320.38,134.263 321.5,136C 321.167,136.5 320.833,137 320.5,137.5C 319.167,135.5 317.833,133.5 316.5,131.5C 315.264,130.754 313.93,130.421 312.5,130.5C 311.259,132.738 310.259,134.738 309.5,136.5C 304.299,132.344 298.299,130.011 291.5,129.5C 288.316,128.357 284.983,127.691 281.5,127.5C 281.082,126.778 280.416,126.278 279.5,126C 274.389,125.571 269.389,124.738 264.5,123.5C 252.34,122.34 240.007,122.173 227.5,123C 221.455,123.79 215.788,125.623 210.5,128.5C 202.923,130.975 195.589,134.141 188.5,138C 185.079,139.699 182.079,141.865 179.5,144.5C 178.638,141.088 178.304,137.754 178.5,134.5C 176.599,134.972 174.599,134.972 172.5,134.5C 172.369,133.624 172.702,132.957 173.5,132.5C 177.297,130.533 180.964,128.366 184.5,126C 185.252,125.329 185.586,124.496 185.5,123.5C 192.567,119.139 200.234,116.139 208.5,114.5C 211.839,114.11 215.173,113.61 218.5,113C 219.056,112.617 219.389,112.117 219.5,111.5C 219.833,111.5 220.167,111.5 220.5,111.5C 229.993,110.793 239.493,110.126 249,109.5C 262.314,109.792 275.481,111.126 288.5,113.5 Z"/></g>
<g><path style="opacity:1" fill="#9cd966" d="M 264.5,123.5 C 269.389,124.738 274.389,125.571 279.5,126C 280.416,126.278 281.082,126.778 281.5,127.5C 279.379,127.675 277.379,127.341 275.5,126.5C 256.444,123.689 237.444,124.023 218.5,127.5C 222.591,125.917 226.924,124.75 231.5,124C 242.495,123.5 253.495,123.333 264.5,123.5 Z"/></g>
<g><path style="opacity:1" fill="#227c2f" d="M 264.5,123.5 C 253.495,123.333 242.495,123.5 231.5,124C 226.924,124.75 222.591,125.917 218.5,127.5C 215.794,127.575 213.127,127.908 210.5,128.5C 215.788,125.623 221.455,123.79 227.5,123C 240.007,122.173 252.34,122.34 264.5,123.5 Z"/></g>
<g><path style="opacity:1" fill="#083611" d="M 195.5,183.5 C 192.844,196.646 191.844,209.979 192.5,223.5C 191.596,222.791 191.263,221.791 191.5,220.5C 190.659,213.535 190.326,206.535 190.5,199.5C 190.401,196.763 190.735,194.096 191.5,191.5C 192.655,188.672 193.989,186.005 195.5,183.5 Z"/></g>
<g><path style="opacity:1" fill="#91d247" d="M 147.5,175.5 C 147.66,177.199 147.494,178.866 147,180.5C 144.112,183.141 141.945,186.308 140.5,190C 140.735,190.873 141.069,191.707 141.5,192.5C 139.923,194.558 138.923,196.892 138.5,199.5C 138.498,202.159 139.831,203.493 142.5,203.5C 150.388,201.948 158.388,200.614 166.5,199.5C 172.585,200.139 178.585,200.139 184.5,199.5C 185.257,202.37 186.257,205.036 187.5,207.5C 188.226,211.321 188.226,215.321 187.5,219.5C 170.972,220.927 154.472,222.594 138,224.5C 137.228,224.355 136.561,224.022 136,223.5C 135.502,220.518 135.335,217.518 135.5,214.5C 135.854,205.665 137.187,196.998 139.5,188.5C 141.418,183.657 144.084,179.323 147.5,175.5 Z"/></g>
<g><path style="opacity:0.922" fill="#6b9d54" d="M 190.5,199.5 C 190.326,206.535 190.659,213.535 191.5,220.5C 189.945,216.797 189.278,212.797 189.5,208.5C 189.502,205.314 189.835,202.314 190.5,199.5 Z"/></g>
<g><path style="opacity:1" fill="#4e8a6a" d="M 118.5,196.5 C 118.196,199.522 117.696,202.522 117,205.5C 116.292,206.381 115.458,207.047 114.5,207.5C 115.387,203.581 116.721,199.915 118.5,196.5 Z"/></g>
<g><path style="opacity:0.659" fill="#90c3ae" d="M 385.5,208.5 C 386.612,210.599 387.279,212.933 387.5,215.5C 385.837,213.562 385.171,211.228 385.5,208.5 Z"/></g>
<g><path style="opacity:1" fill="#81bf52" d="M 233.5,213.5 C 235.96,214.878 238.626,215.878 241.5,216.5C 242.442,216.392 243.275,216.059 244,215.5C 245.417,217.398 246.917,219.064 248.5,220.5C 252.977,223.165 257.811,225.165 263,226.5C 268.354,224.365 271.854,226.032 273.5,231.5C 262.088,227.859 250.754,223.692 239.5,219C 237.004,217.669 235.004,215.836 233.5,213.5 Z"/></g>
<g><path style="opacity:1" fill="#83cb44" d="M 355.5,180.5 C 356.458,180.953 357.292,181.619 358,182.5C 360.745,188.325 363.745,193.992 367,199.5C 369.769,207.026 371.935,214.692 373.5,222.5C 371.562,223.932 369.729,225.599 368,227.5C 366.5,228 365,228.5 363.5,229C 343.701,230.551 323.868,231.718 304,232.5C 298.817,232.383 293.651,232.05 288.5,231.5C 286.083,231.489 284.417,232.489 283.5,234.5C 280.509,232.583 277.176,231.583 273.5,231.5C 271.854,226.032 268.354,224.365 263,226.5C 257.811,225.165 252.977,223.165 248.5,220.5C 279.171,217.164 309.505,216.83 339.5,219.5C 340.386,218.675 340.719,217.675 340.5,216.5C 347.815,215.864 355.148,215.364 362.5,215C 364.119,213.077 365.952,212.577 368,213.5C 368.494,211.866 368.66,210.199 368.5,208.5C 367.5,208.5 366.5,208.5 365.5,208.5C 365.326,205.126 364.826,201.793 364,198.5C 363.105,195.625 362.272,195.292 361.5,197.5C 362.651,199.325 363.318,201.325 363.5,203.5C 362.448,203.649 361.448,203.483 360.5,203C 357.411,198.71 356.744,194.043 358.5,189C 357.212,186.303 356.212,183.47 355.5,180.5 Z"/></g>
<g><path style="opacity:1" fill="#4bad38" d="M 139.5,188.5 C 137.187,196.998 135.854,205.665 135.5,214.5C 134.623,218.322 133.956,222.322 133.5,226.5C 135.006,234.777 136.006,243.11 136.5,251.5C 136.833,252.833 137.167,254.167 137.5,255.5C 132.727,254.474 128.061,253.141 123.5,251.5C 123.069,232.655 126.569,214.655 134,197.5C 135.357,194.102 137.19,191.102 139.5,188.5 Z"/></g>
<g><path style="opacity:1" fill="#79c63f" d="M 373.5,222.5 C 373.5,223.167 373.5,223.833 373.5,224.5C 374.074,230.484 374.407,236.484 374.5,242.5C 362.669,245.587 350.669,246.254 338.5,244.5C 337.304,244.846 337.304,245.346 338.5,246C 328.379,246.962 318.379,247.795 308.5,248.5C 306.435,248.483 304.435,248.15 302.5,247.5C 300.596,247.262 299.262,246.262 298.5,244.5C 296.506,241.997 295.172,239.164 294.5,236C 290.974,234.663 287.308,234.163 283.5,234.5C 284.417,232.489 286.083,231.489 288.5,231.5C 293.651,232.05 298.817,232.383 304,232.5C 323.868,231.718 343.701,230.551 363.5,229C 365,228.5 366.5,228 368,227.5C 369.729,225.599 371.562,223.932 373.5,222.5 Z"/></g>
<g><path style="opacity:0.999" fill="#80c944" d="M 191.5,191.5 C 190.735,194.096 190.401,196.763 190.5,199.5C 189.835,202.314 189.502,205.314 189.5,208.5C 189.278,212.797 189.945,216.797 191.5,220.5C 191.263,221.791 191.596,222.791 192.5,223.5C 192.992,225.819 193.992,227.819 195.5,229.5C 196.78,233.083 198.78,236.083 201.5,238.5C 201.682,241.703 203.348,243.536 206.5,244C 206.996,245.996 207.996,247.663 209.5,249C 208.833,249.333 208.167,249.667 207.5,250C 193.886,250.012 180.386,250.845 167,252.5C 156.939,251.636 146.773,251.303 136.5,251.5C 136.006,243.11 135.006,234.777 133.5,226.5C 133.956,222.322 134.623,218.322 135.5,214.5C 135.335,217.518 135.502,220.518 136,223.5C 136.561,224.022 137.228,224.355 138,224.5C 154.472,222.594 170.972,220.927 187.5,219.5C 188.226,215.321 188.226,211.321 187.5,207.5C 187.335,204.15 187.502,200.817 188,197.5C 188.586,194.981 189.753,192.981 191.5,191.5 Z"/></g>
<g><path style="opacity:1" fill="#073a0d" d="M 195.5,229.5 C 198.935,231.607 201.269,234.607 202.5,238.5C 202.167,238.5 201.833,238.5 201.5,238.5C 198.78,236.083 196.78,233.083 195.5,229.5 Z"/></g>
<g><path style="opacity:1" fill="#73b849" d="M 273.5,231.5 C 277.176,231.583 280.509,232.583 283.5,234.5C 287.308,234.163 290.974,234.663 294.5,236C 295.172,239.164 296.506,241.997 298.5,244.5C 290.568,239.368 282.235,235.034 273.5,231.5 Z"/></g>
<g><path style="opacity:1" fill="#6dc13d" d="M 374.5,242.5 C 374.5,249.5 374.5,256.5 374.5,263.5C 370.146,263.979 365.812,264.646 361.5,265.5C 355.603,264.753 349.77,264.42 344,264.5C 336.615,265.922 329.115,266.756 321.5,267C 320.473,267.513 319.473,268.013 318.5,268.5C 317.986,266.302 316.986,264.302 315.5,262.5C 315.043,261.702 314.376,261.369 313.5,261.5C 313.5,261.167 313.5,260.833 313.5,260.5C 311.84,256.504 310.174,252.504 308.5,248.5C 318.379,247.795 328.379,246.962 338.5,246C 337.304,245.346 337.304,244.846 338.5,244.5C 350.669,246.254 362.669,245.587 374.5,242.5 Z"/></g>
<g><path style="opacity:1" fill="#387955" d="M 114.5,208.5 C 114.548,211.259 114.882,214.092 115.5,217C 114.667,217.833 113.833,218.667 113,219.5C 110.519,236.368 109.852,253.368 111,270.5C 112.024,274.979 113.191,279.479 114.5,284C 113.767,285.766 113.433,287.599 113.5,289.5C 111.735,285.107 110.568,280.44 110,275.5C 109.166,267.163 108.332,258.83 107.5,250.5C 108.286,241.831 109.119,233.165 110,224.5C 110.906,218.859 112.406,213.526 114.5,208.5 Z"/></g>
<g><path style="opacity:1" fill="#69bf55" d="M 373.5,224.5 C 374.268,225.263 374.768,226.263 375,227.5C 377.156,242.68 376.989,257.68 374.5,272.5C 374.5,269.5 374.5,266.5 374.5,263.5C 374.5,256.5 374.5,249.5 374.5,242.5C 374.407,236.484 374.074,230.484 373.5,224.5 Z"/></g>
<g><path style="opacity:1" fill="#6ec03f" d="M 201.5,238.5 C 201.833,238.5 202.167,238.5 202.5,238.5C 207.307,243.409 212.973,247.076 219.5,249.5C 226.29,252.199 232.956,255.199 239.5,258.5C 231.716,255.911 223.716,253.911 215.5,252.5C 213.007,253.774 210.674,253.44 208.5,251.5C 207.833,251.667 207.167,251.833 206.5,252C 208.439,252.908 209.439,254.408 209.5,256.5C 211.936,256.683 214.103,256.016 216,254.5C 220.233,255.452 224.4,256.452 228.5,257.5C 228.439,259.592 227.439,261.092 225.5,262C 214.609,262.328 203.776,262.495 193,262.5C 184.82,261.848 176.654,261.182 168.5,260.5C 160.342,263.065 152.009,264.732 143.5,265.5C 143.5,268.167 143.5,270.833 143.5,273.5C 140.928,267.785 138.928,261.785 137.5,255.5C 137.167,254.167 136.833,252.833 136.5,251.5C 146.773,251.303 156.939,251.636 167,252.5C 180.386,250.845 193.886,250.012 207.5,250C 208.167,249.667 208.833,249.333 209.5,249C 207.996,247.663 206.996,245.996 206.5,244C 203.348,243.536 201.682,241.703 201.5,238.5 Z"/></g>
<g><path style="opacity:1" fill="#6db14d" d="M 302.5,247.5 C 304.435,248.15 306.435,248.483 308.5,248.5C 310.174,252.504 311.84,256.504 313.5,260.5C 312.272,259.694 311.272,258.694 310.5,257.5C 308.213,253.878 305.547,250.545 302.5,247.5 Z"/></g>
<g><path style="opacity:1" fill="#358e31" d="M 123.5,251.5 C 128.061,253.141 132.727,254.474 137.5,255.5C 138.928,261.785 140.928,267.785 143.5,273.5C 143.5,273.833 143.5,274.167 143.5,274.5C 146.713,281.637 150.213,288.637 154,295.5C 155.467,298.787 157.634,301.454 160.5,303.5C 162.354,307.221 164.687,310.554 167.5,313.5C 159.41,312.816 151.41,311.483 143.5,309.5C 142.228,309.57 141.062,309.903 140,310.5C 138.758,308.141 137.258,306.141 135.5,304.5C 126.732,288.128 122.732,270.461 123.5,251.5 Z"/></g>
<g><path style="opacity:1" fill="#023015" d="M 219.5,249.5 C 224.939,249.886 230.105,251.22 235,253.5C 234.852,252.175 235.018,251.008 235.5,250C 237.134,249.506 238.801,249.34 240.5,249.5C 240.007,251.806 239.674,254.139 239.5,256.5C 244.013,254.995 248.513,254.329 253,254.5C 253.309,256.391 252.475,257.725 250.5,258.5C 248.902,257.515 247.235,257.349 245.5,258C 251.328,259.175 256.328,261.675 260.5,265.5C 253.798,262.405 246.798,260.071 239.5,258.5C 232.956,255.199 226.29,252.199 219.5,249.5 Z"/></g>
<g><path style="opacity:0.998" fill="#68bf3b" d="M 239.5,258.5 C 246.798,260.071 253.798,262.405 260.5,265.5C 261.899,266.89 263.566,267.89 265.5,268.5C 265.787,271.484 267.454,272.817 270.5,272.5C 270.5,273.5 270.5,274.5 270.5,275.5C 273.5,275.167 274.833,276.5 274.5,279.5C 253.593,279.989 232.593,281.323 211.5,283.5C 208.594,283.084 205.761,282.418 203,281.5C 200.193,281.404 197.86,282.404 196,284.5C 194.56,283.852 193.06,283.519 191.5,283.5C 182.752,283.255 174.085,283.922 165.5,285.5C 163.109,285.441 160.775,285.107 158.5,284.5C 157.808,285.025 157.308,285.692 157,286.5C 154.763,285.944 152.763,284.944 151,283.5C 150.667,283.833 150.333,284.167 150,284.5C 148.48,281.618 147.147,278.618 146,275.5C 145.329,274.748 144.496,274.414 143.5,274.5C 143.5,274.167 143.5,273.833 143.5,273.5C 143.5,270.833 143.5,268.167 143.5,265.5C 152.009,264.732 160.342,263.065 168.5,260.5C 176.654,261.182 184.82,261.848 193,262.5C 203.776,262.495 214.609,262.328 225.5,262C 227.439,261.092 228.439,259.592 228.5,257.5C 224.4,256.452 220.233,255.452 216,254.5C 214.103,256.016 211.936,256.683 209.5,256.5C 209.439,254.408 208.439,252.908 206.5,252C 207.167,251.833 207.833,251.667 208.5,251.5C 210.674,253.44 213.007,253.774 215.5,252.5C 223.716,253.911 231.716,255.911 239.5,258.5 Z"/></g>
<g><path style="opacity:1" fill="#5bb837" d="M 374.5,263.5 C 374.5,266.5 374.5,269.5 374.5,272.5C 373.6,280.371 371.767,288.038 369,295.5C 367.704,299.254 365.87,302.587 363.5,305.5C 360.52,306.829 357.52,308.162 354.5,309.5C 339.534,312.228 324.7,313.895 310,314.5C 309.536,313.906 309.369,313.239 309.5,312.5C 311.433,311.358 312.933,309.692 314,307.5C 314.84,303.937 316.174,300.603 318,297.5C 318.5,287.839 318.666,278.172 318.5,268.5C 319.473,268.013 320.473,267.513 321.5,267C 329.115,266.756 336.615,265.922 344,264.5C 349.77,264.42 355.603,264.753 361.5,265.5C 365.812,264.646 370.146,263.979 374.5,263.5 Z"/></g>
<g><path style="opacity:1" fill="#5cb838" d="M 274.5,279.5 C 276.237,283.934 276.904,288.601 276.5,293.5C 276.5,293.833 276.5,294.167 276.5,294.5C 274.529,296.152 272.196,297.319 269.5,298C 269.833,298.333 270.167,298.667 270.5,299C 269.552,299.483 268.552,299.649 267.5,299.5C 267.719,300.675 267.386,301.675 266.5,302.5C 264.739,303.035 263.406,304.035 262.5,305.5C 261.833,305.5 261.5,305.833 261.5,306.5C 256.537,307.254 251.537,307.587 246.5,307.5C 243.123,307.932 240.123,307.265 237.5,305.5C 233.707,302.433 229.374,300.099 224.5,298.5C 223.278,296.022 221.278,295.022 218.5,295.5C 215.791,291.692 213.458,287.692 211.5,283.5C 232.593,281.323 253.593,279.989 274.5,279.5 Z"/></g>
<g><path style="opacity:1" fill="#5cb838" d="M 143.5,274.5 C 144.496,274.414 145.329,274.748 146,275.5C 147.147,278.618 148.48,281.618 150,284.5C 150.333,284.167 150.667,283.833 151,283.5C 152.763,284.944 154.763,285.944 157,286.5C 157.308,285.692 157.808,285.025 158.5,284.5C 160.775,285.107 163.109,285.441 165.5,285.5C 174.085,283.922 182.752,283.255 191.5,283.5C 191.904,284.756 192.571,285.923 193.5,287C 191.081,289.697 188.247,291.864 185,293.5C 184.51,294.793 184.343,296.127 184.5,297.5C 182.785,299.882 180.785,301.882 178.5,303.5C 177.549,304.919 177.216,306.585 177.5,308.5C 173.985,308.288 170.652,308.288 167.5,308.5C 164.95,306.962 162.617,305.296 160.5,303.5C 157.634,301.454 155.467,298.787 154,295.5C 150.213,288.637 146.713,281.637 143.5,274.5 Z"/></g>
<g><path style="opacity:1" fill="#60b044" d="M 211.5,283.5 C 213.458,287.692 215.791,291.692 218.5,295.5C 214.686,293.087 211.019,290.421 207.5,287.5C 206.194,284.374 203.86,283.207 200.5,284C 195.664,287.67 191.331,291.836 187.5,296.5C 186.609,297.11 185.609,297.443 184.5,297.5C 184.343,296.127 184.51,294.793 185,293.5C 188.247,291.864 191.081,289.697 193.5,287C 192.571,285.923 191.904,284.756 191.5,283.5C 193.06,283.519 194.56,283.852 196,284.5C 197.86,282.404 200.193,281.404 203,281.5C 205.761,282.418 208.594,283.084 211.5,283.5 Z"/></g>
<g><path style="opacity:1" fill="#63ae49" d="M 265.5,268.5 C 276.564,273.625 280.231,281.958 276.5,293.5C 276.904,288.601 276.237,283.934 274.5,279.5C 274.833,276.5 273.5,275.167 270.5,275.5C 270.5,274.5 270.5,273.5 270.5,272.5C 267.454,272.817 265.787,271.484 265.5,268.5 Z"/></g>
<g><path style="opacity:1" fill="#043812" d="M 207.5,287.5 C 202.148,285.341 198.148,286.841 195.5,292C 192.941,293.777 190.274,295.277 187.5,296.5C 191.331,291.836 195.664,287.67 200.5,284C 203.86,283.207 206.194,284.374 207.5,287.5 Z"/></g>
<g><path style="opacity:0.443" fill="#87b59c" d="M 387.5,285.5 C 387.279,288.067 386.612,290.401 385.5,292.5C 385.171,289.772 385.837,287.438 387.5,285.5 Z"/></g>
<g><path style="opacity:1" fill="#60ac4c" d="M 313.5,261.5 C 314.376,261.369 315.043,261.702 315.5,262.5C 316.986,264.302 317.986,266.302 318.5,268.5C 318.666,278.172 318.5,287.839 318,297.5C 316.174,300.603 314.84,303.937 314,307.5C 312.933,309.692 311.433,311.358 309.5,312.5C 316.742,299.053 319.242,284.72 317,269.5C 316.094,266.69 314.927,264.024 313.5,261.5 Z"/></g>
<g><path style="opacity:1" fill="#033214" d="M 310.5,257.5 C 311.272,258.694 312.272,259.694 313.5,260.5C 313.5,260.833 313.5,261.167 313.5,261.5C 314.927,264.024 316.094,266.69 317,269.5C 319.242,284.72 316.742,299.053 309.5,312.5C 307.5,314.167 305.5,315.833 303.5,317.5C 305.758,314.373 307.925,311.039 310,307.5C 309.456,304.158 309.623,300.825 310.5,297.5C 311.298,299.078 311.798,300.744 312,302.5C 314.762,291.354 315.762,280.021 315,268.5C 313.805,265.042 311.972,262.042 309.5,259.5C 309.863,258.817 310.196,258.15 310.5,257.5 Z"/></g>
<g><path style="opacity:1" fill="#5ba746" d="M 218.5,295.5 C 221.278,295.022 223.278,296.022 224.5,298.5C 229.374,300.099 233.707,302.433 237.5,305.5C 230.432,303.467 224.098,300.134 218.5,295.5 Z"/></g>
<g><path style="opacity:1" fill="#5ba647" d="M 276.5,294.5 C 273.579,300.425 268.912,304.092 262.5,305.5C 263.406,304.035 264.739,303.035 266.5,302.5C 267.386,301.675 267.719,300.675 267.5,299.5C 268.552,299.649 269.552,299.483 270.5,299C 270.167,298.667 269.833,298.333 269.5,298C 272.196,297.319 274.529,296.152 276.5,294.5 Z"/></g>
<g><path style="opacity:1" fill="#448764" d="M 385.5,292.5 C 383.154,301.584 379.487,309.917 374.5,317.5C 376.069,313.005 377.569,308.339 379,303.5C 381.181,299.661 383.347,295.994 385.5,292.5 Z"/></g>
<g><path style="opacity:1" fill="#0b4414" d="M 261.5,306.5 C 261.389,307.117 261.056,307.617 260.5,308C 255.648,308.815 250.981,308.648 246.5,307.5C 251.537,307.587 256.537,307.254 261.5,306.5 Z"/></g>
<g><path style="opacity:0.999" fill="#4db036" d="M 363.5,305.5 C 362.68,309.302 361.014,312.636 358.5,315.5C 357.5,315.5 356.5,315.5 355.5,315.5C 355.657,316.873 355.49,318.207 355,319.5C 352.61,321.267 350.943,323.6 350,326.5C 346.919,329.976 343.252,330.976 339,329.5C 334.32,332.428 329.32,333.094 324,331.5C 321.037,334.271 317.704,334.938 314,333.5C 310.589,333.985 307.256,334.652 304,335.5C 303.667,334.833 303.333,334.167 303,333.5C 302.5,334.667 301.667,335.5 300.5,336C 294.802,336.542 289.136,336.875 283.5,337C 284.5,336.667 285.5,336.333 286.5,336C 286.167,335.667 285.833,335.333 285.5,335C 287.693,335.57 289.693,335.236 291.5,334C 289.956,333.71 288.623,333.044 287.5,332C 289.544,331.502 290.878,330.335 291.5,328.5C 295.8,325.202 299.8,321.535 303.5,317.5C 305.5,315.833 307.5,314.167 309.5,312.5C 309.369,313.239 309.536,313.906 310,314.5C 324.7,313.895 339.534,312.228 354.5,309.5C 357.52,308.162 360.52,306.829 363.5,305.5 Z"/></g>
<g><path style="opacity:1" fill="#4fa63f" d="M 178.5,303.5 C 179.044,305.58 179.878,307.58 181,309.5C 193.12,321.637 207.286,330.304 223.5,335.5C 221.473,335.662 219.473,335.495 217.5,335C 210.21,332.182 202.877,329.682 195.5,327.5C 195.657,326.127 195.49,324.793 195,323.5C 190.811,320.376 186.311,317.71 181.5,315.5C 179.436,313.475 178.102,311.142 177.5,308.5C 177.216,306.585 177.549,304.919 178.5,303.5 Z"/></g>
<g><path style="opacity:1" fill="#4f8b6a" d="M 374.5,318.5 C 372.327,322.852 369.66,326.852 366.5,330.5C 366.5,328.833 366.5,327.167 366.5,325.5C 367.5,325.5 368.5,325.5 369.5,325.5C 369.604,322.061 371.27,319.728 374.5,318.5 Z"/></g>
<g><path style="opacity:1" fill="#44ab35" d="M 160.5,303.5 C 162.617,305.296 164.95,306.962 167.5,308.5C 170.652,308.288 173.985,308.288 177.5,308.5C 178.102,311.142 179.436,313.475 181.5,315.5C 186.311,317.71 190.811,320.376 195,323.5C 195.49,324.793 195.657,326.127 195.5,327.5C 202.877,329.682 210.21,332.182 217.5,335C 219.473,335.495 221.473,335.662 223.5,335.5C 225.56,337.148 227.893,338.648 230.5,340C 239.833,340.667 249.167,340.667 258.5,340C 263.283,339.561 267.617,338.395 271.5,336.5C 278.114,334.065 284.781,331.398 291.5,328.5C 290.878,330.335 289.544,331.502 287.5,332C 288.623,333.044 289.956,333.71 291.5,334C 289.693,335.236 287.693,335.57 285.5,335C 285.833,335.333 286.167,335.667 286.5,336C 285.5,336.333 284.5,336.667 283.5,337C 289.136,336.875 294.802,336.542 300.5,336C 301.667,335.5 302.5,334.667 303,333.5C 303.333,334.167 303.667,334.833 304,335.5C 307.256,334.652 310.589,333.985 314,333.5C 317.704,334.938 321.037,334.271 324,331.5C 329.32,333.094 334.32,332.428 339,329.5C 343.252,330.976 346.919,329.976 350,326.5C 350.943,323.6 352.61,321.267 355,319.5C 355.49,318.207 355.657,316.873 355.5,315.5C 356.5,315.5 357.5,315.5 358.5,315.5C 355.172,321.484 351.339,327.15 347,332.5C 341.581,337.749 336.415,343.083 331.5,348.5C 326.408,352.043 321.075,355.043 315.5,357.5C 273.106,366.746 233.439,360.412 196.5,338.5C 185.878,331.207 176.212,322.874 167.5,313.5C 164.687,310.554 162.354,307.221 160.5,303.5 Z"/></g>
<g><path style="opacity:0.996" fill="#43815e" d="M 366.5,330.5 C 364.262,335.071 361.262,339.071 357.5,342.5C 357.5,340.833 357.5,339.167 357.5,337.5C 358.5,337.5 359.5,337.5 360.5,337.5C 360.427,333.28 362.427,330.946 366.5,330.5 Z"/></g>
<g><path style="opacity:1" fill="#3e7d5a" d="M 135.5,334.5 C 138.195,334.933 140.362,336.266 142,338.5C 142.617,339.449 142.451,340.282 141.5,341C 145.531,341.903 147.531,344.403 147.5,348.5C 142.81,344.473 138.81,339.806 135.5,334.5 Z"/></g>
<g><path style="opacity:1" fill="#4ea348" d="M 223.5,335.5 C 231.477,337.814 239.644,339.147 248,339.5C 255.902,338.9 263.735,337.9 271.5,336.5C 267.617,338.395 263.283,339.561 258.5,340C 249.167,340.667 239.833,340.667 230.5,340C 227.893,338.648 225.56,337.148 223.5,335.5 Z"/></g>
<g><path style="opacity:1" fill="#418861" d="M 357.5,342.5 C 355.212,346.456 352.212,349.789 348.5,352.5C 348.201,350.396 348.534,348.396 349.5,346.5C 352.352,345.71 354.519,344.044 356,341.5C 356.383,342.056 356.883,342.389 357.5,342.5 Z"/></g>
<g><path style="opacity:1" fill="#1a8230" d="M 135.5,304.5 C 137.258,306.141 138.758,308.141 140,310.5C 141.062,309.903 142.228,309.57 143.5,309.5C 151.41,311.483 159.41,312.816 167.5,313.5C 176.212,322.874 185.878,331.207 196.5,338.5C 233.439,360.412 273.106,366.746 315.5,357.5C 312.418,359.189 309.418,361.022 306.5,363C 302.924,363.19 299.758,364.357 297,366.5C 294.02,366.333 290.853,366.167 287.5,366C 288.833,367.333 288.833,368.667 287.5,370C 285.231,370.758 283.064,370.591 281,369.5C 280.072,371.335 278.906,371.668 277.5,370.5C 276.088,371.806 274.421,372.64 272.5,373C 257.094,373.414 241.761,373.581 226.5,373.5C 220.338,372.05 214.338,370.216 208.5,368C 204.176,366.359 200.342,363.859 197,360.5C 196.586,360.957 196.086,361.291 195.5,361.5C 189.675,358.317 183.675,355.65 177.5,353.5C 175.22,352.36 172.886,351.193 170.5,350C 162.973,343.14 155.806,335.973 149,328.5C 143.714,320.926 139.214,312.926 135.5,304.5 Z"/></g>
<g><path style="opacity:1" fill="#096836" d="M 179.5,144.5 C 174.235,147.435 169.568,151.101 165.5,155.5C 158.573,161.371 152.573,168.037 147.5,175.5C 144.084,179.323 141.418,183.657 139.5,188.5C 137.19,191.102 135.357,194.102 134,197.5C 126.569,214.655 123.069,232.655 123.5,251.5C 122.732,270.461 126.732,288.128 135.5,304.5C 139.214,312.926 143.714,320.926 149,328.5C 155.806,335.973 162.973,343.14 170.5,350C 172.886,351.193 175.22,352.36 177.5,353.5C 178.642,355.433 180.308,356.933 182.5,358C 192.109,363.304 202.109,367.804 212.5,371.5C 212.859,373.485 213.692,374.151 215,373.5C 217.533,374.872 220.2,375.872 223,376.5C 223.333,376.167 223.667,375.833 224,375.5C 228.684,376.407 233.35,377.407 238,378.5C 248.333,377.833 258.667,377.167 269,376.5C 269.414,376.957 269.914,377.291 270.5,377.5C 280.683,375.87 290.35,372.87 299.5,368.5C 300.167,368.667 300.833,368.833 301.5,369C 300.019,369.98 298.685,371.147 297.5,372.5C 299.205,374.303 301.038,374.969 303,374.5C 305.096,375.715 304.929,376.549 302.5,377C 303.737,377.232 304.737,377.732 305.5,378.5C 304.761,378.369 304.094,378.536 303.5,379C 304.416,379.278 305.082,379.778 305.5,380.5C 299.167,381.833 292.833,383.167 286.5,384.5C 286.5,385.5 286.5,386.5 286.5,387.5C 282.343,389.062 278.01,389.729 273.5,389.5C 269.96,389.753 266.627,390.419 263.5,391.5C 237.034,393.679 212.034,389.013 188.5,377.5C 188.141,375.629 187.141,374.129 185.5,373C 182.647,371.57 179.647,370.737 176.5,370.5C 176.719,369.325 176.386,368.325 175.5,367.5C 173.941,366.926 172.441,366.26 171,365.5C 171.046,363.687 170.88,362.021 170.5,360.5C 167.133,360.174 163.467,359.841 159.5,359.5C 154.848,356.514 150.848,352.847 147.5,348.5C 147.531,344.403 145.531,341.903 141.5,341C 142.451,340.282 142.617,339.449 142,338.5C 140.362,336.266 138.195,334.933 135.5,334.5C 125.11,320.998 117.777,305.998 113.5,289.5C 113.433,287.599 113.767,285.766 114.5,284C 113.191,279.479 112.024,274.979 111,270.5C 109.852,253.368 110.519,236.368 113,219.5C 113.833,218.667 114.667,217.833 115.5,217C 114.882,214.092 114.548,211.259 114.5,208.5C 114.5,208.167 114.5,207.833 114.5,207.5C 115.458,207.047 116.292,206.381 117,205.5C 117.696,202.522 118.196,199.522 118.5,196.5C 120.818,194.815 121.818,192.481 121.5,189.5C 122.714,186.07 124.214,182.736 126,179.5C 128.029,175.42 130.529,171.754 133.5,168.5C 134.906,168.027 135.573,167.027 135.5,165.5C 136.46,163.539 137.793,161.873 139.5,160.5C 140.833,160.5 142.167,160.5 143.5,160.5C 143.5,159.167 143.5,157.833 143.5,156.5C 144.978,156.762 146.311,156.429 147.5,155.5C 148.607,152.059 150.94,150.059 154.5,149.5C 156.16,145.868 158.16,142.534 160.5,139.5C 161.496,139.586 162.329,139.252 163,138.5C 163.333,139.167 163.667,139.833 164,140.5C 165.75,136.971 168.584,134.971 172.5,134.5C 174.599,134.972 176.599,134.972 178.5,134.5C 178.304,137.754 178.638,141.088 179.5,144.5 Z"/></g>
<g><path style="opacity:1" fill="#2d714c" d="M 159.5,359.5 C 163.467,359.841 167.133,360.174 170.5,360.5C 170.88,362.021 171.046,363.687 171,365.5C 172.441,366.26 173.941,366.926 175.5,367.5C 176.386,368.325 176.719,369.325 176.5,370.5C 179.647,370.737 182.647,371.57 185.5,373C 187.141,374.129 188.141,375.629 188.5,377.5C 178.019,372.762 168.353,366.762 159.5,359.5 Z"/></g>
<g><path style="opacity:0.987" fill="#458862" d="M 337.5,361.5 C 327.815,369.526 317.148,375.859 305.5,380.5C 305.082,379.778 304.416,379.278 303.5,379C 304.094,378.536 304.761,378.369 305.5,378.5C 308.548,376.707 311.882,375.707 315.5,375.5C 315.5,374.5 315.5,373.5 315.5,372.5C 318.704,371.17 322.038,370.004 325.5,369C 324.167,368.333 324.167,367.667 325.5,367C 326.938,366.781 328.271,366.281 329.5,365.5C 331.109,362.106 333.776,360.773 337.5,361.5 Z"/></g>
<g><path style="opacity:0.999" fill="#188039" d="M 331.5,348.5 C 326.464,355.82 319.464,360.32 310.5,362C 298.859,367.68 286.525,372.013 273.5,375C 252.886,377.801 232.553,376.635 212.5,371.5C 202.109,367.804 192.109,363.304 182.5,358C 180.308,356.933 178.642,355.433 177.5,353.5C 183.675,355.65 189.675,358.317 195.5,361.5C 196.086,361.291 196.586,360.957 197,360.5C 200.342,363.859 204.176,366.359 208.5,368C 214.338,370.216 220.338,372.05 226.5,373.5C 241.761,373.581 257.094,373.414 272.5,373C 274.421,372.64 276.088,371.806 277.5,370.5C 278.906,371.668 280.072,371.335 281,369.5C 283.064,370.591 285.231,370.758 287.5,370C 288.833,368.667 288.833,367.333 287.5,366C 290.853,366.167 294.02,366.333 297,366.5C 299.758,364.357 302.924,363.19 306.5,363C 309.418,361.022 312.418,359.189 315.5,357.5C 321.075,355.043 326.408,352.043 331.5,348.5 Z"/></g>
<g><path style="opacity:1" fill="#3f7d5a" d="M 305.5,380.5 C 299.616,383.798 293.282,386.131 286.5,387.5C 286.5,386.5 286.5,385.5 286.5,384.5C 292.833,383.167 299.167,381.833 305.5,380.5 Z"/></g>
<g><path style="opacity:0.212" fill="#94bca5" d="M 273.5,389.5 C 270.493,391.175 267.16,391.841 263.5,391.5C 266.627,390.419 269.96,389.753 273.5,389.5 Z"/></g>
</svg>
