<svg xmlns="http://www.w3.org/2000/svg" width="513" height="513" viewBox="0 0 1024 1024">
<path d="M 490,222 L 489,223 L 479,223 L 478,224 L 471,224 L 470,225 L 464,225 L 463,226 L 459,226 L 458,227 L 454,227 L 453,228 L 449,228 L 448,229 L 444,229 L 443,230 L 440,230 L 439,231 L 437,231 L 436,232 L 433,232 L 432,233 L 429,233 L 428,234 L 426,234 L 425,235 L 423,235 L 422,236 L 420,236 L 419,237 L 417,237 L 416,238 L 414,238 L 413,239 L 411,239 L 410,240 L 409,240 L 408,241 L 406,241 L 405,242 L 403,242 L 402,243 L 401,243 L 400,244 L 398,244 L 397,245 L 396,245 L 395,246 L 394,246 L 393,247 L 391,247 L 390,248 L 389,248 L 388,249 L 387,249 L 386,250 L 385,250 L 384,251 L 383,251 L 382,252 L 381,252 L 380,253 L 379,253 L 378,254 L 377,254 L 376,255 L 375,255 L 374,256 L 373,256 L 372,257 L 371,257 L 369,259 L 368,259 L 367,260 L 366,260 L 365,261 L 364,261 L 362,263 L 361,263 L 360,264 L 359,264 L 357,266 L 356,266 L 354,268 L 353,268 L 352,269 L 351,269 L 348,272 L 347,272 L 345,274 L 344,274 L 342,276 L 341,276 L 338,279 L 337,279 L 334,282 L 333,282 L 329,286 L 328,286 L 323,291 L 322,291 L 314,299 L 313,299 L 300,312 L 300,313 L 291,322 L 291,323 L 286,328 L 286,329 L 282,333 L 282,334 L 279,337 L 279,338 L 276,341 L 276,342 L 274,344 L 274,345 L 271,348 L 271,349 L 270,350 L 270,351 L 268,353 L 268,354 L 266,356 L 266,357 L 264,359 L 264,360 L 263,361 L 263,362 L 261,364 L 261,365 L 260,366 L 260,367 L 258,369 L 258,370 L 257,371 L 257,372 L 256,373 L 256,374 L 255,375 L 255,376 L 254,377 L 254,378 L 253,379 L 253,380 L 252,381 L 252,382 L 251,383 L 251,384 L 250,385 L 250,386 L 249,387 L 249,388 L 248,389 L 248,390 L 247,391 L 247,393 L 246,394 L 246,395 L 245,396 L 245,397 L 244,398 L 244,400 L 243,401 L 243,402 L 242,403 L 242,405 L 241,406 L 241,407 L 240,408 L 240,410 L 239,411 L 239,413 L 238,414 L 238,416 L 237,417 L 237,419 L 236,420 L 236,422 L 235,423 L 235,425 L 234,426 L 234,429 L 233,430 L 233,432 L 232,433 L 232,436 L 231,437 L 231,440 L 230,441 L 230,444 L 229,445 L 229,449 L 228,450 L 228,454 L 227,455 L 227,459 L 226,460 L 226,465 L 225,466 L 225,472 L 224,473 L 224,481 L 223,482 L 223,492 L 222,493 L 222,531 L 223,532 L 223,543 L 224,544 L 224,551 L 225,552 L 225,558 L 226,559 L 226,564 L 227,565 L 227,570 L 228,571 L 228,575 L 229,576 L 229,579 L 230,580 L 230,583 L 231,584 L 231,587 L 232,588 L 232,591 L 233,592 L 233,594 L 234,595 L 234,597 L 235,598 L 235,601 L 236,602 L 236,604 L 237,605 L 237,607 L 238,608 L 238,610 L 239,611 L 239,612 L 240,613 L 240,615 L 241,616 L 241,618 L 242,619 L 242,620 L 243,621 L 243,623 L 244,624 L 244,625 L 245,626 L 245,627 L 246,628 L 246,630 L 247,631 L 247,632 L 248,633 L 248,634 L 249,635 L 249,636 L 250,637 L 250,638 L 251,639 L 251,640 L 252,641 L 252,642 L 253,643 L 253,644 L 254,645 L 254,646 L 255,647 L 255,648 L 256,649 L 256,650 L 258,652 L 258,653 L 259,654 L 259,655 L 260,656 L 260,657 L 261,658 L 261,659 L 263,661 L 263,662 L 265,664 L 265,665 L 266,666 L 266,667 L 268,669 L 268,670 L 270,672 L 270,673 L 272,675 L 272,676 L 275,679 L 275,680 L 277,682 L 277,683 L 280,686 L 280,687 L 284,691 L 284,692 L 289,697 L 289,698 L 294,703 L 294,704 L 318,728 L 319,728 L 325,734 L 326,734 L 330,738 L 331,738 L 335,742 L 336,742 L 339,745 L 340,745 L 342,747 L 343,747 L 346,750 L 347,750 L 349,752 L 350,752 L 352,754 L 353,754 L 354,755 L 355,755 L 357,757 L 358,757 L 360,759 L 361,759 L 362,760 L 363,760 L 365,762 L 366,762 L 367,763 L 368,763 L 369,764 L 370,764 L 372,766 L 373,766 L 374,767 L 375,767 L 376,768 L 377,768 L 378,769 L 379,769 L 380,770 L 381,770 L 382,771 L 383,771 L 384,772 L 385,772 L 386,773 L 387,773 L 388,774 L 389,774 L 390,775 L 391,775 L 392,776 L 394,776 L 395,777 L 396,777 L 397,778 L 398,778 L 399,779 L 401,779 L 402,780 L 403,780 L 404,781 L 405,781 L 406,782 L 408,782 L 409,783 L 411,783 L 412,784 L 414,784 L 415,785 L 417,785 L 418,786 L 420,786 L 421,787 L 423,787 L 424,788 L 426,788 L 427,789 L 430,789 L 431,790 L 433,790 L 434,791 L 437,791 L 438,792 L 441,792 L 442,793 L 445,793 L 446,794 L 449,794 L 450,795 L 453,795 L 454,796 L 459,796 L 460,797 L 464,797 L 465,798 L 471,798 L 472,799 L 478,799 L 479,800 L 489,800 L 490,801 L 535,801 L 536,800 L 546,800 L 547,799 L 553,799 L 554,798 L 560,798 L 561,797 L 566,797 L 567,796 L 571,796 L 572,795 L 575,795 L 576,794 L 580,794 L 581,793 L 583,793 L 584,792 L 588,792 L 589,791 L 591,791 L 592,790 L 595,790 L 596,789 L 598,789 L 599,788 L 601,788 L 602,787 L 604,787 L 605,786 L 607,786 L 608,785 L 610,785 L 611,784 L 613,784 L 614,783 L 615,783 L 616,782 L 618,782 L 619,781 L 620,781 L 621,780 L 623,780 L 624,779 L 625,779 L 626,778 L 627,778 L 628,777 L 629,777 L 630,776 L 632,776 L 633,775 L 634,775 L 635,774 L 636,774 L 637,773 L 638,773 L 639,772 L 640,772 L 641,771 L 642,771 L 643,770 L 644,770 L 645,769 L 646,769 L 647,768 L 648,768 L 650,766 L 651,766 L 652,765 L 653,765 L 654,764 L 655,764 L 656,763 L 657,763 L 659,761 L 660,761 L 661,760 L 662,760 L 664,758 L 665,758 L 667,756 L 668,756 L 670,754 L 671,754 L 672,753 L 673,753 L 675,751 L 676,751 L 679,748 L 680,748 L 683,745 L 684,745 L 686,743 L 687,743 L 691,739 L 692,739 L 696,735 L 697,735 L 703,729 L 704,729 L 729,704 L 729,703 L 735,697 L 735,696 L 739,692 L 739,691 L 743,687 L 743,686 L 746,683 L 746,682 L 748,680 L 748,679 L 751,676 L 751,675 L 753,673 L 753,672 L 755,670 L 755,669 L 757,667 L 757,666 L 758,665 L 758,664 L 760,662 L 760,661 L 761,660 L 761,659 L 763,657 L 763,656 L 764,655 L 764,654 L 766,652 L 766,651 L 767,650 L 767,649 L 768,648 L 768,647 L 769,646 L 769,645 L 770,644 L 770,643 L 771,642 L 771,641 L 772,640 L 772,639 L 773,638 L 773,637 L 774,636 L 774,635 L 775,634 L 775,633 L 776,632 L 776,631 L 777,630 L 777,628 L 778,627 L 778,626 L 779,625 L 779,623 L 780,622 L 780,621 L 781,620 L 781,618 L 782,617 L 782,616 L 783,615 L 783,613 L 784,612 L 784,610 L 785,609 L 785,608 L 786,607 L 786,605 L 787,604 L 787,602 L 788,601 L 788,598 L 789,597 L 789,595 L 790,594 L 790,591 L 791,590 L 791,587 L 792,586 L 792,584 L 793,583 L 793,579 L 794,578 L 794,575 L 795,574 L 795,570 L 796,569 L 796,565 L 797,564 L 797,559 L 798,558 L 798,552 L 799,551 L 799,544 L 800,543 L 800,531 L 801,530 L 801,493 L 800,492 L 800,481 L 799,480 L 799,473 L 798,472 L 798,466 L 797,465 L 797,460 L 796,459 L 796,454 L 795,453 L 795,450 L 794,449 L 794,445 L 793,444 L 793,441 L 792,440 L 792,437 L 791,436 L 791,434 L 790,433 L 790,430 L 789,429 L 789,426 L 788,425 L 788,423 L 787,422 L 787,420 L 786,419 L 786,417 L 785,416 L 785,414 L 784,413 L 784,412 L 783,411 L 783,409 L 782,408 L 782,406 L 781,405 L 781,404 L 780,403 L 780,401 L 779,400 L 779,399 L 778,398 L 778,396 L 777,395 L 777,394 L 776,393 L 776,392 L 775,391 L 775,390 L 774,389 L 774,388 L 773,387 L 773,386 L 772,385 L 772,383 L 771,382 L 771,381 L 769,379 L 769,378 L 768,377 L 768,376 L 767,375 L 767,374 L 766,373 L 766,372 L 765,371 L 765,370 L 764,369 L 764,368 L 762,366 L 762,365 L 761,364 L 761,363 L 759,361 L 759,360 L 758,359 L 758,358 L 756,356 L 756,355 L 754,353 L 754,352 L 753,351 L 753,350 L 750,347 L 750,346 L 748,344 L 748,343 L 746,341 L 746,340 L 743,337 L 743,336 L 739,332 L 739,331 L 736,328 L 736,327 L 730,321 L 730,320 L 703,293 L 702,293 L 696,287 L 695,287 L 691,283 L 690,283 L 686,279 L 685,279 L 683,277 L 682,277 L 679,274 L 678,274 L 676,272 L 675,272 L 673,270 L 672,270 L 670,268 L 669,268 L 667,266 L 666,266 L 664,264 L 663,264 L 662,263 L 661,263 L 659,261 L 658,261 L 657,260 L 656,260 L 654,258 L 653,258 L 652,257 L 651,257 L 650,256 L 649,256 L 648,255 L 647,255 L 646,254 L 645,254 L 644,253 L 643,253 L 642,252 L 641,252 L 640,251 L 639,251 L 638,250 L 637,250 L 636,249 L 635,249 L 634,248 L 633,248 L 632,247 L 631,247 L 630,246 L 629,246 L 628,245 L 626,245 L 625,244 L 624,244 L 623,243 L 621,243 L 620,242 L 619,242 L 618,241 L 616,241 L 615,240 L 614,240 L 613,239 L 611,239 L 610,238 L 608,238 L 607,237 L 605,237 L 604,236 L 602,236 L 601,235 L 599,235 L 598,234 L 595,234 L 594,233 L 592,233 L 591,232 L 589,232 L 588,231 L 585,231 L 584,230 L 580,230 L 579,229 L 576,229 L 575,228 L 572,228 L 571,227 L 567,227 L 566,226 L 561,226 L 560,225 L 554,225 L 553,224 L 546,224 L 545,223 L 535,223 L 534,222 Z" fill="black"/>
</svg>